<mxfile host="app.diagrams.net" modified="2023-08-11T13:58:57.959Z" agent="Mozilla/5.0 (Windows NT 10.0; Win64; x64) AppleWebKit/537.36 (KHTML, like Gecko) Chrome/115.0.0.0 Safari/537.36" etag="kEG3xnr21ZZbOlUuzEvP" version="21.6.8" type="github">
  <diagram id="Nch7347EjMd_-BC98r2E" name="PÃ¡gina-1">
    <mxGraphModel dx="880" dy="1647" grid="1" gridSize="10" guides="1" tooltips="1" connect="1" arrows="1" fold="1" page="1" pageScale="1" pageWidth="827" pageHeight="1169" math="0" shadow="0">
      <root>
        <mxCell id="0" />
        <mxCell id="1" parent="0" />
        <mxCell id="Z_mwCE1DiAtYex3Zk7wE-5" style="edgeStyle=orthogonalEdgeStyle;rounded=0;orthogonalLoop=1;jettySize=auto;html=1;" edge="1" parent="1" source="Z_mwCE1DiAtYex3Zk7wE-2" target="Z_mwCE1DiAtYex3Zk7wE-4">
          <mxGeometry relative="1" as="geometry" />
        </mxCell>
        <mxCell id="Z_mwCE1DiAtYex3Zk7wE-14" value="descompactar arquivo.zip" style="edgeLabel;html=1;align=center;verticalAlign=middle;resizable=0;points=[];" vertex="1" connectable="0" parent="Z_mwCE1DiAtYex3Zk7wE-5">
          <mxGeometry x="0.0843" y="-2" relative="1" as="geometry">
            <mxPoint as="offset" />
          </mxGeometry>
        </mxCell>
        <mxCell id="Z_mwCE1DiAtYex3Zk7wE-10" style="edgeStyle=orthogonalEdgeStyle;rounded=0;orthogonalLoop=1;jettySize=auto;html=1;" edge="1" parent="1" source="Z_mwCE1DiAtYex3Zk7wE-2" target="Z_mwCE1DiAtYex3Zk7wE-9">
          <mxGeometry relative="1" as="geometry" />
        </mxCell>
        <mxCell id="Z_mwCE1DiAtYex3Zk7wE-13" style="edgeStyle=orthogonalEdgeStyle;rounded=0;orthogonalLoop=1;jettySize=auto;html=1;" edge="1" parent="1" source="Z_mwCE1DiAtYex3Zk7wE-2" target="Z_mwCE1DiAtYex3Zk7wE-12">
          <mxGeometry relative="1" as="geometry" />
        </mxCell>
        <mxCell id="Z_mwCE1DiAtYex3Zk7wE-2" value="attachment - manager" style="rounded=1;whiteSpace=wrap;html=1;fillColor=#fff2cc;strokeColor=#d6b656;" vertex="1" parent="1">
          <mxGeometry x="144" y="40" width="120" height="60" as="geometry" />
        </mxCell>
        <mxCell id="Z_mwCE1DiAtYex3Zk7wE-16" value="" style="edgeStyle=orthogonalEdgeStyle;rounded=0;orthogonalLoop=1;jettySize=auto;html=1;" edge="1" parent="1" source="Z_mwCE1DiAtYex3Zk7wE-3" target="Z_mwCE1DiAtYex3Zk7wE-15">
          <mxGeometry relative="1" as="geometry" />
        </mxCell>
        <mxCell id="Z_mwCE1DiAtYex3Zk7wE-19" style="edgeStyle=orthogonalEdgeStyle;rounded=0;orthogonalLoop=1;jettySize=auto;html=1;" edge="1" parent="1" source="Z_mwCE1DiAtYex3Zk7wE-3" target="Z_mwCE1DiAtYex3Zk7wE-18">
          <mxGeometry relative="1" as="geometry" />
        </mxCell>
        <mxCell id="Z_mwCE1DiAtYex3Zk7wE-21" style="edgeStyle=orthogonalEdgeStyle;rounded=0;orthogonalLoop=1;jettySize=auto;html=1;" edge="1" parent="1" source="Z_mwCE1DiAtYex3Zk7wE-3" target="Z_mwCE1DiAtYex3Zk7wE-2">
          <mxGeometry relative="1" as="geometry">
            <Array as="points">
              <mxPoint x="640" y="-30" />
              <mxPoint x="204" y="-30" />
            </Array>
          </mxGeometry>
        </mxCell>
        <mxCell id="Z_mwCE1DiAtYex3Zk7wE-3" value="attachment - manager - unzip - file - consumer" style="rounded=1;whiteSpace=wrap;html=1;fillColor=#fff2cc;strokeColor=#d6b656;" vertex="1" parent="1">
          <mxGeometry x="580" y="210" width="120" height="60" as="geometry" />
        </mxCell>
        <mxCell id="Z_mwCE1DiAtYex3Zk7wE-7" style="edgeStyle=orthogonalEdgeStyle;rounded=0;orthogonalLoop=1;jettySize=auto;html=1;entryX=0;entryY=0.5;entryDx=0;entryDy=0;" edge="1" parent="1" source="Z_mwCE1DiAtYex3Zk7wE-4" target="Z_mwCE1DiAtYex3Zk7wE-3">
          <mxGeometry relative="1" as="geometry" />
        </mxCell>
        <mxCell id="Z_mwCE1DiAtYex3Zk7wE-4" value="" style="sketch=0;points=[[0,0,0],[0.25,0,0],[0.5,0,0],[0.75,0,0],[1,0,0],[0,1,0],[0.25,1,0],[0.5,1,0],[0.75,1,0],[1,1,0],[0,0.25,0],[0,0.5,0],[0,0.75,0],[1,0.25,0],[1,0.5,0],[1,0.75,0]];outlineConnect=0;fontColor=#232F3E;gradientColor=#945DF2;gradientDirection=north;fillColor=#5A30B5;strokeColor=#ffffff;dashed=0;verticalLabelPosition=bottom;verticalAlign=top;align=center;html=1;fontSize=12;fontStyle=0;aspect=fixed;shape=mxgraph.aws4.resourceIcon;resIcon=mxgraph.aws4.managed_streaming_for_kafka;" vertex="1" parent="1">
          <mxGeometry x="400" y="110" width="78" height="78" as="geometry" />
        </mxCell>
        <mxCell id="Z_mwCE1DiAtYex3Zk7wE-8" value="" style="outlineConnect=0;dashed=0;verticalLabelPosition=bottom;verticalAlign=top;align=center;html=1;shape=mxgraph.aws3.bucket;fillColor=#E05243;gradientColor=none;" vertex="1" parent="1">
          <mxGeometry x="300" y="243.25" width="60" height="61.5" as="geometry" />
        </mxCell>
        <mxCell id="Z_mwCE1DiAtYex3Zk7wE-22" value="" style="edgeStyle=orthogonalEdgeStyle;rounded=0;orthogonalLoop=1;jettySize=auto;html=1;" edge="1" parent="1" source="Z_mwCE1DiAtYex3Zk7wE-9" target="Z_mwCE1DiAtYex3Zk7wE-8">
          <mxGeometry relative="1" as="geometry" />
        </mxCell>
        <mxCell id="Z_mwCE1DiAtYex3Zk7wE-9" value="" style="shape=image;html=1;verticalAlign=top;verticalLabelPosition=bottom;labelBackgroundColor=#ffffff;imageAspect=0;aspect=fixed;image=https://cdn1.iconfinder.com/data/icons/DarkGlass_Reworked/128x128/mimetypes/zip.png" vertex="1" parent="1">
          <mxGeometry x="174" y="243.25" width="60" height="60" as="geometry" />
        </mxCell>
        <mxCell id="Z_mwCE1DiAtYex3Zk7wE-12" value="" style="strokeWidth=2;html=1;shape=mxgraph.flowchart.database;whiteSpace=wrap;fillColor=#dae8fc;strokeColor=#6c8ebf;" vertex="1" parent="1">
          <mxGeometry x="20" y="40" width="60" height="60" as="geometry" />
        </mxCell>
        <mxCell id="Z_mwCE1DiAtYex3Zk7wE-17" style="edgeStyle=orthogonalEdgeStyle;rounded=0;orthogonalLoop=1;jettySize=auto;html=1;" edge="1" parent="1" source="Z_mwCE1DiAtYex3Zk7wE-15" target="Z_mwCE1DiAtYex3Zk7wE-8">
          <mxGeometry relative="1" as="geometry" />
        </mxCell>
        <mxCell id="Z_mwCE1DiAtYex3Zk7wE-15" value="PDFs" style="strokeWidth=2;html=1;shape=mxgraph.flowchart.multi-document;whiteSpace=wrap;" vertex="1" parent="1">
          <mxGeometry x="596" y="338" width="88" height="60" as="geometry" />
        </mxCell>
        <mxCell id="Z_mwCE1DiAtYex3Zk7wE-18" value="callback" style="rounded=1;whiteSpace=wrap;html=1;fillColor=#fff2cc;strokeColor=#d6b656;" vertex="1" parent="1">
          <mxGeometry x="730" y="80" width="120" height="60" as="geometry" />
        </mxCell>
      </root>
    </mxGraphModel>
  </diagram>
</mxfile>
